<?xml version="1.0" encoding="utf-8"?>
<!-- Generator: Adobe Illustrator 24.3.0, SVG Export Plug-In . SVG Version: 6.00 Build 0)  -->
<svg version="1.1" id="ade8c9af-8376-4472-9bc3-28567412a130"
	 xmlns="http://www.w3.org/2000/svg" xmlns:xlink="http://www.w3.org/1999/xlink" x="0px" y="0px" viewBox="0 0 831 730"
	 style="enable-background:new 0 0 831 730;" xml:space="preserve">
<style type="text/css">
	.st0{fill:#3F3D56;}
	.st1{fill:#FFFFFF;}
	.st2{fill:#E5E5E5;}
	.st3{fill:#05AEE2;}
	.st4{fill:#FFB7B7;}
	.st5{fill:#2F2E41;}
	.st6{fill:#CBCBCB;}
</style>
<path class="st0" d="M590.8,167h-3.9V61.2c0-33.8-27.4-61.2-61.2-61.2c0,0,0,0,0,0H301.5c-33.8,0-61.2,27.4-61.2,61.2c0,0,0,0,0,0
	v580.5c0,33.8,27.4,61.2,61.2,61.2l0,0h224.2c33.8,0,61.2-27.4,61.2-61.2c0,0,0,0,0,0V242.4h3.9L590.8,167z"/>
<path class="st1" d="M528.1,15.9h-29.3c4.5,11.1-0.8,23.8-11.9,28.3c-2.6,1.1-5.4,1.6-8.2,1.6H350.3c-12,0-21.7-9.7-21.7-21.7
	c0-2.8,0.5-5.6,1.6-8.2h-27.3c-25.3,0-45.7,20.5-45.7,45.7v579.6c0,25.3,20.5,45.7,45.7,45.7h225.3c25.3,0,45.7-20.5,45.7-45.7l0,0
	V61.7C573.9,36.4,553.4,15.9,528.1,15.9C528.1,15.9,528.1,15.9,528.1,15.9z"/>
<path class="st2" d="M522.5,677.1h-214c-24.6,0-44.6-17.9-44.6-39.8v-28.8c0-17.5,15.9-31.7,35.5-31.7h232.1
	c19.6,0,35.5,14.2,35.5,31.7v28.8C567.1,659.2,547.1,677.1,522.5,677.1z"/>
<path class="st3" d="M331,192.8h-47.7c-1.8,0-3.2-1.4-3.2-3.2v-47.7c0-1.8,1.4-3.2,3.2-3.2H331c1.8,0,3.2,1.4,3.2,3.2v47.7
	C334.2,191.4,332.8,192.8,331,192.8z"/>
<path class="st2" d="M403.2,192.8h-47.7c-1.8,0-3.2-1.4-3.2-3.2v-47.7c0-1.8,1.4-3.2,3.2-3.2h47.7c1.8,0,3.2,1.4,3.2,3.2v47.7
	C406.5,191.4,405,192.8,403.2,192.8z"/>
<path class="st2" d="M475.5,192.8h-47.7c-1.8,0-3.2-1.4-3.2-3.2v-47.7c0-1.8,1.4-3.2,3.2-3.2h47.7c1.8,0,3.2,1.4,3.2,3.2v47.7
	C478.7,191.4,477.3,192.8,475.5,192.8z"/>
<path class="st2" d="M547.7,192.8H500c-1.8,0-3.2-1.4-3.2-3.2v-47.7c0-1.8,1.4-3.2,3.2-3.2h47.7c1.8,0,3.2,1.4,3.2,3.2v47.7
	C550.9,191.4,549.5,192.8,547.7,192.8z"/>
<path class="st2" d="M330.8,281.2h-47.7c-1.8,0-3.2-1.4-3.2-3.2v-47.7c0-1.8,1.4-3.2,3.2-3.2h47.7c1.8,0,3.2,1.4,3.2,3.2V278
	C334.1,279.8,332.6,281.2,330.8,281.2z"/>
<path class="st2" d="M403.1,281.2h-47.7c-1.8,0-3.2-1.4-3.2-3.2v-47.7c0-1.8,1.4-3.2,3.2-3.2h47.7c1.8,0,3.2,1.4,3.2,3.2V278
	C406.3,279.8,404.9,281.2,403.1,281.2z"/>
<path class="st3" d="M475.3,281.2h-47.7c-1.8,0-3.2-1.4-3.2-3.2v-47.7c0-1.8,1.4-3.2,3.2-3.2h47.7c1.8,0,3.2,1.4,3.2,3.2V278
	C478.5,279.8,477.1,281.2,475.3,281.2z"/>
<path class="st3" d="M547.5,281.2h-47.7c-1.8,0-3.2-1.4-3.2-3.2v-47.7c0-1.8,1.4-3.2,3.2-3.2h47.7c1.8,0,3.2,1.4,3.2,3.2V278
	C550.8,279.8,549.3,281.2,547.5,281.2z"/>
<path class="st2" d="M330.7,369.6h-47.7c-1.8,0-3.2-1.4-3.2-3.2v-47.7c0-1.8,1.4-3.2,3.2-3.2h47.7c1.8,0,3.2,1.4,3.2,3.2v47.7
	C333.9,368.1,332.4,369.6,330.7,369.6z"/>
<path class="st2" d="M402.9,369.6h-47.7c-1.8,0-3.2-1.4-3.2-3.2v-47.7c0-1.8,1.4-3.2,3.2-3.2h47.7c1.8,0,3.2,1.4,3.2,3.2v47.7
	C406.1,368.1,404.7,369.6,402.9,369.6z"/>
<path class="st2" d="M475.1,369.6h-47.7c-1.8,0-3.2-1.4-3.2-3.2v-47.7c0-1.8,1.4-3.2,3.2-3.2h47.7c1.8,0,3.2,1.4,3.2,3.2v47.7
	C478.4,368.1,476.9,369.6,475.1,369.6z"/>
<path class="st2" d="M547.4,369.6h-47.7c-1.8,0-3.2-1.4-3.2-3.2v-47.7c0-1.8,1.4-3.2,3.2-3.2h47.7c1.8,0,3.2,1.4,3.2,3.2v47.7
	C550.6,368.1,549.2,369.6,547.4,369.6z"/>
<path class="st2" d="M330.5,457.9h-47.7c-1.8,0-3.2-1.4-3.2-3.2V407c0-1.8,1.4-3.2,3.2-3.2h47.7c1.8,0,3.2,1.4,3.2,3.2v47.7
	C333.7,456.5,332.3,457.9,330.5,457.9z"/>
<path class="st2" d="M402.7,457.9H355c-1.8,0-3.2-1.4-3.2-3.2V407c0-1.8,1.4-3.2,3.2-3.2h47.7c1.8,0,3.2,1.4,3.2,3.2v47.7
	C406,456.5,404.5,457.9,402.7,457.9z"/>
<path class="st2" d="M475,457.9h-47.7c-1.8,0-3.2-1.4-3.2-3.2V407c0-1.8,1.4-3.2,3.2-3.2H475c1.8,0,3.2,1.4,3.2,3.2v47.7
	C478.2,456.5,476.7,457.9,475,457.9z"/>
<path class="st2" d="M547.2,457.9h-47.7c-1.8,0-3.2-1.4-3.2-3.2V407c0-1.8,1.4-3.2,3.2-3.2h47.7c1.8,0,3.2,1.4,3.2,3.2v47.7
	C550.4,456.5,549,457.9,547.2,457.9z"/>
<path class="st1" d="M331,655.3h-47.7c-1.8,0-3.2-1.4-3.2-3.2v-47.7c0-1.8,1.4-3.2,3.2-3.2H331c1.8,0,3.2,1.4,3.2,3.2v47.7
	C334.2,653.8,332.8,655.3,331,655.3z"/>
<path class="st1" d="M403.2,655.3h-47.7c-1.8,0-3.2-1.4-3.2-3.2v-47.7c0-1.8,1.4-3.2,3.2-3.2h47.7c1.8,0,3.2,1.4,3.2,3.2v47.7
	C406.5,653.8,405,655.3,403.2,655.3z"/>
<path class="st1" d="M475.5,655.3h-47.7c-1.8,0-3.2-1.4-3.2-3.2v-47.7c0-1.8,1.4-3.2,3.2-3.2h47.7c1.8,0,3.2,1.4,3.2,3.2v47.7
	C478.7,653.8,477.3,655.3,475.5,655.3z"/>
<path class="st1" d="M547.7,655.3H500c-1.8,0-3.2-1.4-3.2-3.2v-47.7c0-1.8,1.4-3.2,3.2-3.2h47.7c1.8,0,3.2,1.4,3.2,3.2v47.7
	C550.9,653.8,549.5,655.3,547.7,655.3z"/>
<circle class="st2" cx="392.1" cy="548.2" r="6.4"/>
<circle class="st2" cx="415.3" cy="548.2" r="6.4"/>
<circle class="st2" cx="438.5" cy="548.2" r="6.4"/>
<path class="st4" d="M326.4,507.1c5.1-5.1,5.1-13.4,0-18.5c-0.5-0.5-1.1-1-1.8-1.5l12.6-44.6l-23,7.3l-8.4,41.3
	c-3.7,6.2-1.7,14.3,4.5,18C315.4,512.2,322.1,511.4,326.4,507.1z"/>
<path class="st0" d="M332.9,479.7c-0.4,0.1-0.8,0.1-1.2,0.1l-22-0.4c-3.2-0.1-5.8-2.7-5.7-6c0-0.2,0-0.5,0.1-0.7l22.3-151
	c1.4-9,9.1-15.7,18.3-15.7l0,0c10.2,0,18.4,8.3,18.4,18.5c0,1.5-0.2,2.9-0.5,4.4L346.6,393l-9,81.7
	C337.3,477.2,335.4,479.3,332.9,479.7z"/>
<polygon class="st4" points="342.1,718.1 354.4,718.1 360.2,670.8 342.1,670.8 "/>
<path class="st5" d="M339,714.1l24.1,0h0c8.5,0,15.4,6.9,15.4,15.4v0.5l-39.5,0L339,714.1z"/>
<polygon class="st4" points="394.4,714.1 406.6,715.5 417.6,669.1 399.6,667.1 "/>
<path class="st5" d="M391.7,709.8l24,2.7l0,0c8.4,0.9,14.5,8.6,13.6,17l-0.1,0.5l-39.3-4.4L391.7,709.8z"/>
<path class="st5" d="M330.6,455c0,0-16.8,37.2-2,61.4l8.8,188.2h20.3l19.7-152l35,45l-21.3,105l24.8,1.4l34.5-106.4
	c0,0-26.5-117.3-35.2-120.2l-5.8-26.8L330.6,455z"/>
<path class="st6" d="M323.1,487.6c0,0-15.1,17.4,24.9,23.4c40,6,82-3,83-15S323.1,487.6,323.1,487.6z"/>
<path class="st4" d="M523.6,272.1c-0.2,6.4-5.6,11.4-12,11.2c-0.7,0-1.4-0.1-2-0.3l-15.1,21.8l-15.5-6l21.8-30.5
	c1.8-6.2,8.2-9.8,14.4-8C520.4,261.8,523.9,266.7,523.6,272.1z"/>
<path class="st0" d="M395.8,300.1l-21.4-9.7l-27.4,2c0,0-33,38.6-20,75.6l-8,129c51,14,74.2-12.3,111-1l-11.4-143.4L395.8,300.1z"/>
<path class="st0" d="M381.5,309.5l14.3-9.4c0,0,19.8-3,27.8,4.7c0,0,26.9,2.3,33.4,9l7.2,1.6l23.8-30.8l14.6,7.9l-21,57l-62.9,3.1
	L381.5,309.5z"/>
<ellipse transform="matrix(0.8775 -0.4797 0.4797 0.8775 -74.5354 208.2132)" class="st4" cx="370.2" cy="250" rx="33.7" ry="33.7"/>
<path class="st5" d="M341,223.6c6-10.8,13.6-17.8,25.9-17.6s23.1-0.2,28.7,10.8c1.5-2.8,2.2-5.9,2.1-9c3.4,2.2,5.2,6.3,4.5,10.3
	c2.2-1.3,3.6-3.6,3.7-6.2c4.1,1.4,5.2,7.2,3.1,11s-6.2,6-10.1,7.9s-2.1,11.8-4.7,15.3c-1.8,2.5-2.6,5.5-3.8,8.3
	c-0.1,0.1-0.1,0.2-0.2,0.3c-2.8,1.5-4.5,4.3-4,7.4c0.1,0.2,0,0.5,0,0.7c-3.5,6.6-7.3,13.5-13.7,17.5c-5.1,3.1-11.2,4-17,2.6
	c-6.5-1.6-12.1-5.9-16.2-11.2s-6.7-11.6-8.6-18c-1.7-5.7-3-11.7-1.6-17.5s6-11.1,12-11.6"/>
</svg>
